<svg width="228" height="98" viewBox="0 0 228 98" fill="none" xmlns="http://www.w3.org/2000/svg">
<mask id="path-1-inside-1_82_3" fill="white">
<path d="M42.6122 46.002L9.2782 67.2086L42.6122 39.8031L46.898 44.0444L69.7555 15.334L89.5178 31.973L115.947 0H119.28L132.376 23.1641L146.424 44.0444L155.71 29.0367L162.138 44.0444L166.662 50.5695L174.281 41.4344L180.948 37.5193L206.425 65.251L182.615 46.002V55.7896H173.329V69.1661H162.138L150.233 59.0522L136.662 46.002L118.09 11.7452L119.28 53.8321L100.47 39.8031L104.756 59.0522L74.9937 26.7529L69.7555 25.1216L64.5173 31.973L56.6601 41.4344L42.6122 55.7896V46.002Z"/>
</mask>
<path d="M9.2782 67.2086L-468.295 -513.677L412.928 701.693L9.2782 67.2086ZM42.6122 46.002H794.612V-1323.69L-361.038 -588.483L42.6122 46.002ZM42.6122 55.7896H-709.388V1899.43L580.079 581.749L42.6122 55.7896ZM104.756 59.0522L-448.262 568.636L1446.44 2624.83L838.782 -104.378L104.756 59.0522ZM100.47 39.8031L550.06 -563.001L-1073.82 -1774.14L-633.556 203.234L100.47 39.8031ZM119.28 53.8321L-330.309 656.636L914.903 1585.35L870.98 32.569L119.28 53.8321ZM118.09 11.7452L779.188 -346.659L-633.61 33.0082L118.09 11.7452ZM136.662 46.002L-524.436 404.406L-468.765 507.095L-384.567 588.058L136.662 46.002ZM162.138 69.1661L-324.745 642.271L-114.169 821.166H162.138V69.1661ZM173.329 69.1661V821.166H925.329V69.1661H173.329ZM173.329 55.7896V-696.21H-578.671V55.7896H173.329ZM182.615 55.7896V807.79H934.615V55.7896H182.615ZM182.615 46.002L655.391 -538.795L-569.385 -1528.96L-569.385 46.002H182.615ZM206.425 65.251L-266.351 650.048L760.208 -443.501L206.425 65.251ZM180.948 37.5193L734.731 -471.232L323.851 -918.481L-199.855 -610.935L180.948 37.5193ZM155.71 29.0367L846.96 -267.066L277.363 -1596.79L-483.778 -366.64L155.71 29.0367ZM146.424 44.0444L-477.512 463.816L172.866 1430.52L785.911 439.721L146.424 44.0444ZM115.947 0V-752H-238.099L-463.669 -479.114L115.947 0ZM89.5178 31.973L-394.823 607.228L185.663 1095.97L669.133 511.087L89.5178 31.973ZM69.7555 15.334L554.096 -559.921L-37.1545 -1057.73L-518.564 -453.051L69.7555 15.334ZM46.898 44.0444L-482.066 578.555L113.409 1167.85L635.217 512.43L46.898 44.0444ZM42.6122 39.8031L571.576 -494.707L89.2318 -972.046L-434.961 -541.082L42.6122 39.8031ZM119.28 0L773.911 -370.085L558.001 -752H119.28V0ZM132.376 23.1641L-522.254 393.25L-507.873 418.689L-491.56 442.936L132.376 23.1641ZM166.662 50.5695L-451.337 479.033L111.47 1290.81L744.16 532.234L166.662 50.5695ZM162.138 44.0444L-529.112 340.148L-499.177 410.03L-455.861 472.508L162.138 44.0444ZM174.281 41.4344L-206.522 -607.02L-319.384 -540.742L-403.216 -440.23L174.281 41.4344ZM150.233 59.0522L-370.995 601.109L-354.3 617.162L-336.65 632.157L150.233 59.0522ZM69.7555 25.1216L293.351 -692.868L-208.438 -849.135L-527.647 -431.621L69.7555 25.1216ZM74.9937 26.7529L628.011 -482.831L491.264 -631.234L298.589 -691.237L74.9937 26.7529ZM56.6601 41.4344L594.127 567.394L615.582 545.47L635.18 521.871L56.6601 41.4344ZM64.5173 31.973L643.037 512.409L652.717 500.753L661.92 488.716L64.5173 31.973ZM412.928 701.693L446.262 680.487L-361.038 -588.483L-394.372 -567.276L412.928 701.693ZM-709.388 46.002V55.7896H794.612V46.002H-709.388ZM838.782 -104.378L834.497 -123.627L-633.556 203.234L-629.27 222.483L838.782 -104.378ZM-349.119 642.608L-330.309 656.636L568.87 -548.972L550.06 -563.001L-349.119 642.608ZM870.98 32.569L869.789 -9.51788L-633.61 33.0082L-632.419 75.0952L870.98 32.569ZM-543.008 370.149L-524.436 404.406L797.76 -312.402L779.188 -346.659L-543.008 370.149ZM162.138 821.166H173.329V-682.834H162.138V821.166ZM925.329 69.1661V55.7896H-578.671V69.1661H925.329ZM173.329 807.79H182.615V-696.21H173.329V807.79ZM934.615 55.7896V46.002H-569.385V55.7896H934.615ZM-290.161 630.799L-266.351 650.048L679.201 -519.546L655.391 -538.795L-290.161 630.799ZM760.208 -443.501L734.731 -471.232L-372.835 546.271L-347.358 574.003L760.208 -443.501ZM-483.778 -366.64L-493.064 -351.632L785.911 439.721L795.197 424.713L-483.778 -366.64ZM-463.669 -479.114L-490.098 -447.141L669.133 511.087L695.562 479.114L-463.669 -479.114ZM573.858 -543.282L554.096 -559.921L-414.585 590.589L-394.823 607.228L573.858 -543.282ZM-518.564 -453.051L-541.421 -424.341L635.217 512.43L658.075 483.719L-518.564 -453.051ZM575.862 -490.466L571.576 -494.707L-486.351 574.314L-482.066 578.555L575.862 -490.466ZM-434.961 -541.082L-468.295 -513.677L486.851 648.094L520.185 620.688L-434.961 -541.082ZM119.28 -752H115.947V752H119.28V-752ZM770.359 -375.727L756.311 -396.608L-491.56 442.936L-477.512 463.816L770.359 -375.727ZM787.006 -346.921L773.911 -370.085L-535.35 370.085L-522.254 393.25L787.006 -346.921ZM784.662 -377.894L780.138 -384.419L-455.861 472.508L-451.337 479.033L784.662 -377.894ZM853.389 -252.059L846.96 -267.066L-535.541 325.14L-529.112 340.148L853.389 -252.059ZM-199.855 -610.935L-206.522 -607.02L555.085 689.889L561.752 685.973L-199.855 -610.935ZM-403.216 -440.23L-410.836 -431.095L744.16 532.234L751.779 523.099L-403.216 -440.23ZM-384.567 588.058L-370.995 601.109L671.462 -483.004L657.89 -496.054L-384.567 588.058ZM-336.65 632.157L-324.745 642.271L649.021 -503.939L637.116 -514.053L-336.65 632.157ZM-153.84 743.111L-148.602 744.742L298.589 -691.237L293.351 -692.868L-153.84 743.111ZM-478.024 536.336L-448.262 568.636L657.774 -450.531L628.011 -482.831L-478.024 536.336ZM580.079 581.749L594.127 567.394L-480.807 -484.525L-494.855 -470.17L580.079 581.749ZM635.18 521.871L643.037 512.409L-514.002 -448.463L-521.86 -439.002L635.18 521.871ZM661.92 488.716L667.158 481.865L-527.647 -431.621L-532.885 -424.77L661.92 488.716Z" fill="black" mask="url(#path-1-inside-1_82_3)"/>
<path d="M9.936 97.2288C7.76 97.2288 5.952 96.7328 4.512 95.7408C3.072 94.7168 2.352 93.3888 2.352 91.7568C2.352 90.7968 2.688 89.9968 3.36 89.3568C4.064 88.6848 4.944 88.3488 6 88.3488C6.224 88.3488 6.432 88.3968 6.624 88.4928C6.816 88.5888 6.912 88.7168 6.912 88.8768C6.912 88.9728 6.816 89.2608 6.624 89.7408C6.432 90.1888 6.336 90.7328 6.336 91.3728C6.336 92.5568 6.752 93.4688 7.584 94.1088C8.448 94.7488 9.408 95.0688 10.464 95.0688C11.68 95.0688 12.672 94.7488 13.44 94.1088C14.208 93.4688 14.592 92.6368 14.592 91.6128C14.592 90.6848 14.176 89.9168 13.344 89.3088C12.544 88.7008 11.376 88.0768 9.84 87.4368C8.432 86.8288 7.248 86.2528 6.288 85.7088C5.36 85.1648 4.56 84.4448 3.888 83.5488C3.216 82.6528 2.88 81.5648 2.88 80.2848C2.88 78.5888 3.632 77.1968 5.136 76.1088C6.64 75.0208 8.528 74.4768 10.8 74.4768C12.88 74.4768 14.592 74.8768 15.936 75.6768C17.28 76.4448 17.952 77.5168 17.952 78.8928C17.952 80.0128 17.616 80.9248 16.944 81.6288C16.272 82.3328 15.392 82.6848 14.304 82.6848C13.664 82.6848 13.344 82.4768 13.344 82.0608C13.344 81.9328 13.456 81.6448 13.68 81.1968C13.936 80.7488 14.064 80.2368 14.064 79.6608C14.064 78.6368 13.696 77.8688 12.96 77.3568C12.224 76.8128 11.392 76.5408 10.464 76.5408C9.28 76.5408 8.336 76.8288 7.632 77.4048C6.96 77.9808 6.624 78.7328 6.624 79.6608C6.624 80.7488 7.072 81.6448 7.968 82.3488C8.864 83.0208 10.128 83.6608 11.76 84.2688C13.168 84.8768 14.336 85.4368 15.264 85.9488C16.192 86.4608 16.976 87.1168 17.616 87.9168C18.256 88.6848 18.576 89.5968 18.576 90.6528C18.576 92.6368 17.776 94.2368 16.176 95.4528C14.608 96.6368 12.528 97.2288 9.936 97.2288ZM30.6983 97.2288C29.2903 97.2288 27.9783 96.8288 26.7623 96.0288C25.5783 95.1968 24.6183 93.9968 23.8823 92.4288C23.1783 90.8288 22.8263 88.8928 22.8263 86.6208C22.8263 82.8768 23.8343 79.9168 25.8503 77.7408C27.8983 75.5648 30.6503 74.4768 34.1063 74.4768C35.2583 74.4768 36.8263 74.6528 38.8103 75.0048C40.2823 75.2608 41.6103 75.4368 42.7943 75.5328L43.3703 76.0608L42.7463 76.8768C42.5223 77.2608 42.3623 77.5648 42.2663 77.7888C42.2023 77.9808 42.1703 78.2528 42.1703 78.6048V92.7648C42.1703 93.6608 42.6343 94.1088 43.5623 94.1088C44.2663 94.1088 44.9863 93.8528 45.7223 93.3408L46.5383 94.4448C45.7703 95.3088 44.9543 95.9968 44.0903 96.5088C43.2263 96.9888 42.4423 97.2288 41.7383 97.2288C40.5223 97.2288 39.6423 96.8768 39.0983 96.1728C38.5543 95.4368 38.2823 94.2528 38.2823 92.6208C37.1303 94.3168 35.9303 95.5168 34.6823 96.2208C33.4663 96.8928 32.1383 97.2288 30.6983 97.2288ZM32.3783 93.8208C34.8103 93.8208 36.7783 92.5088 38.2823 89.8848V78.1248C37.0343 77.2928 35.6263 76.8768 34.0583 76.8768C31.9783 76.8768 30.3463 77.6608 29.1623 79.2288C28.0103 80.7648 27.4343 82.9568 27.4343 85.8048C27.4343 88.5568 27.8983 90.5888 28.8263 91.9008C29.7863 93.1808 30.9703 93.8208 32.3783 93.8208ZM57.0454 97.2288C54.8694 97.2288 53.0614 96.7328 51.6214 95.7408C50.1814 94.7168 49.4614 93.3888 49.4614 91.7568C49.4614 90.7968 49.7974 89.9968 50.4694 89.3568C51.1734 88.6848 52.0534 88.3488 53.1094 88.3488C53.3334 88.3488 53.5414 88.3968 53.7334 88.4928C53.9254 88.5888 54.0214 88.7168 54.0214 88.8768C54.0214 88.9728 53.9254 89.2608 53.7334 89.7408C53.5414 90.1888 53.4454 90.7328 53.4454 91.3728C53.4454 92.5568 53.8614 93.4688 54.6934 94.1088C55.5574 94.7488 56.5174 95.0688 57.5734 95.0688C58.7894 95.0688 59.7814 94.7488 60.5494 94.1088C61.3174 93.4688 61.7014 92.6368 61.7014 91.6128C61.7014 90.6848 61.2854 89.9168 60.4534 89.3088C59.6534 88.7008 58.4854 88.0768 56.9494 87.4368C55.5414 86.8288 54.3574 86.2528 53.3974 85.7088C52.4694 85.1648 51.6694 84.4448 50.9974 83.5488C50.3254 82.6528 49.9894 81.5648 49.9894 80.2848C49.9894 78.5888 50.7414 77.1968 52.2454 76.1088C53.7494 75.0208 55.6374 74.4768 57.9094 74.4768C59.9894 74.4768 61.7014 74.8768 63.0454 75.6768C64.3894 76.4448 65.0614 77.5168 65.0614 78.8928C65.0614 80.0128 64.7254 80.9248 64.0534 81.6288C63.3814 82.3328 62.5014 82.6848 61.4134 82.6848C60.7734 82.6848 60.4534 82.4768 60.4534 82.0608C60.4534 81.9328 60.5654 81.6448 60.7894 81.1968C61.0454 80.7488 61.1734 80.2368 61.1734 79.6608C61.1734 78.6368 60.8054 77.8688 60.0694 77.3568C59.3334 76.8128 58.5014 76.5408 57.5734 76.5408C56.3894 76.5408 55.4454 76.8288 54.7414 77.4048C54.0694 77.9808 53.7334 78.7328 53.7334 79.6608C53.7334 80.7488 54.1814 81.6448 55.0774 82.3488C55.9734 83.0208 57.2374 83.6608 58.8694 84.2688C60.2774 84.8768 61.4454 85.4368 62.3734 85.9488C63.3014 86.4608 64.0854 87.1168 64.7254 87.9168C65.3654 88.6848 65.6854 89.5968 65.6854 90.6528C65.6854 92.6368 64.8854 94.2368 63.2854 95.4528C61.7174 96.6368 59.6374 97.2288 57.0454 97.2288ZM76.0796 97.2288C74.8956 97.2288 73.9676 96.8608 73.2956 96.1248C72.6236 95.3568 72.2876 94.3168 72.2876 93.0048V77.6928H68.4956C68.4956 76.9248 68.5596 76.4288 68.6876 76.2048C68.8156 75.9488 69.1036 75.7568 69.5516 75.6288C71.0876 75.2448 72.1756 74.6048 72.8156 73.7088C73.4556 72.8128 73.9356 71.6288 74.2556 70.1568C74.3196 69.7088 74.4636 69.4368 74.6876 69.3408C74.9436 69.2128 75.4876 69.1488 76.3196 69.1488V75.0048H81.9356C81.9356 75.6128 81.8396 76.1568 81.6476 76.6368C81.4876 77.1168 81.2636 77.4688 80.9756 77.6928H76.3196V91.7568C76.3196 92.6528 76.4316 93.2928 76.6556 93.6768C76.9116 94.0288 77.3436 94.2048 77.9516 94.2048C78.8156 94.2048 79.7916 93.7408 80.8796 92.8128L81.6956 93.9648C80.9596 94.9248 80.0636 95.7088 79.0076 96.3168C77.9516 96.9248 76.9756 97.2288 76.0796 97.2288ZM146.573 97.2288C145.165 97.2288 143.853 96.8288 142.637 96.0288C141.453 95.1968 140.493 93.9968 139.757 92.4288C139.053 90.8288 138.701 88.8928 138.701 86.6208C138.701 82.8768 139.709 79.9168 141.725 77.7408C143.773 75.5648 146.525 74.4768 149.981 74.4768C151.133 74.4768 152.701 74.6528 154.685 75.0048C156.157 75.2608 157.485 75.4368 158.669 75.5328L159.245 76.0608L158.621 76.8768C158.397 77.2608 158.237 77.5648 158.141 77.7888C158.077 77.9808 158.045 78.2528 158.045 78.6048V92.7648C158.045 93.6608 158.509 94.1088 159.437 94.1088C160.141 94.1088 160.861 93.8528 161.597 93.3408L162.413 94.4448C161.645 95.3088 160.829 95.9968 159.965 96.5088C159.101 96.9888 158.317 97.2288 157.613 97.2288C156.397 97.2288 155.517 96.8768 154.973 96.1728C154.429 95.4368 154.157 94.2528 154.157 92.6208C153.005 94.3168 151.805 95.5168 150.557 96.2208C149.341 96.8928 148.013 97.2288 146.573 97.2288ZM148.253 93.8208C150.685 93.8208 152.653 92.5088 154.157 89.8848V78.1248C152.909 77.2928 151.501 76.8768 149.933 76.8768C147.853 76.8768 146.221 77.6608 145.037 79.2288C143.885 80.7648 143.309 82.9568 143.309 85.8048C143.309 88.5568 143.773 90.5888 144.701 91.9008C145.661 93.1808 146.845 93.8208 148.253 93.8208ZM172.92 97.2288C170.744 97.2288 168.936 96.7328 167.496 95.7408C166.056 94.7168 165.336 93.3888 165.336 91.7568C165.336 90.7968 165.672 89.9968 166.344 89.3568C167.048 88.6848 167.928 88.3488 168.984 88.3488C169.208 88.3488 169.416 88.3968 169.608 88.4928C169.8 88.5888 169.896 88.7168 169.896 88.8768C169.896 88.9728 169.8 89.2608 169.608 89.7408C169.416 90.1888 169.32 90.7328 169.32 91.3728C169.32 92.5568 169.736 93.4688 170.568 94.1088C171.432 94.7488 172.392 95.0688 173.448 95.0688C174.664 95.0688 175.656 94.7488 176.424 94.1088C177.192 93.4688 177.576 92.6368 177.576 91.6128C177.576 90.6848 177.16 89.9168 176.328 89.3088C175.528 88.7008 174.36 88.0768 172.824 87.4368C171.416 86.8288 170.232 86.2528 169.272 85.7088C168.344 85.1648 167.544 84.4448 166.872 83.5488C166.2 82.6528 165.864 81.5648 165.864 80.2848C165.864 78.5888 166.616 77.1968 168.12 76.1088C169.624 75.0208 171.512 74.4768 173.784 74.4768C175.864 74.4768 177.576 74.8768 178.92 75.6768C180.264 76.4448 180.936 77.5168 180.936 78.8928C180.936 80.0128 180.6 80.9248 179.928 81.6288C179.256 82.3328 178.376 82.6848 177.288 82.6848C176.648 82.6848 176.328 82.4768 176.328 82.0608C176.328 81.9328 176.44 81.6448 176.664 81.1968C176.92 80.7488 177.048 80.2368 177.048 79.6608C177.048 78.6368 176.68 77.8688 175.944 77.3568C175.208 76.8128 174.376 76.5408 173.448 76.5408C172.264 76.5408 171.32 76.8288 170.616 77.4048C169.944 77.9808 169.608 78.7328 169.608 79.6608C169.608 80.7488 170.056 81.6448 170.952 82.3488C171.848 83.0208 173.112 83.6608 174.744 84.2688C176.152 84.8768 177.32 85.4368 178.248 85.9488C179.176 86.4608 179.96 87.1168 180.6 87.9168C181.24 88.6848 181.56 89.5968 181.56 90.6528C181.56 92.6368 180.76 94.2368 179.16 95.4528C177.592 96.6368 175.512 97.2288 172.92 97.2288ZM191.955 97.2288C190.771 97.2288 189.843 96.8608 189.171 96.1248C188.499 95.3568 188.163 94.3168 188.163 93.0048V77.6928H184.371C184.371 76.9248 184.435 76.4288 184.563 76.2048C184.691 75.9488 184.979 75.7568 185.427 75.6288C186.963 75.2448 188.051 74.6048 188.691 73.7088C189.331 72.8128 189.811 71.6288 190.131 70.1568C190.195 69.7088 190.339 69.4368 190.563 69.3408C190.819 69.2128 191.363 69.1488 192.195 69.1488V75.0048H197.811C197.811 75.6128 197.715 76.1568 197.523 76.6368C197.363 77.1168 197.139 77.4688 196.851 77.6928H192.195V91.7568C192.195 92.6528 192.307 93.2928 192.531 93.6768C192.787 94.0288 193.219 94.2048 193.827 94.2048C194.691 94.2048 195.667 93.7408 196.755 92.8128L197.571 93.9648C196.835 94.9248 195.939 95.7088 194.883 96.3168C193.827 96.9248 192.851 97.2288 191.955 97.2288ZM208.448 97.2288C207.04 97.2288 205.728 96.8288 204.512 96.0288C203.328 95.1968 202.368 93.9968 201.632 92.4288C200.928 90.8288 200.576 88.8928 200.576 86.6208C200.576 82.8768 201.584 79.9168 203.6 77.7408C205.648 75.5648 208.4 74.4768 211.856 74.4768C213.008 74.4768 214.576 74.6528 216.56 75.0048C218.032 75.2608 219.36 75.4368 220.544 75.5328L221.12 76.0608L220.496 76.8768C220.272 77.2608 220.112 77.5648 220.016 77.7888C219.952 77.9808 219.92 78.2528 219.92 78.6048V92.7648C219.92 93.6608 220.384 94.1088 221.312 94.1088C222.016 94.1088 222.736 93.8528 223.472 93.3408L224.288 94.4448C223.52 95.3088 222.704 95.9968 221.84 96.5088C220.976 96.9888 220.192 97.2288 219.488 97.2288C218.272 97.2288 217.392 96.8768 216.848 96.1728C216.304 95.4368 216.032 94.2528 216.032 92.6208C214.88 94.3168 213.68 95.5168 212.432 96.2208C211.216 96.8928 209.888 97.2288 208.448 97.2288ZM210.128 93.8208C212.56 93.8208 214.528 92.5088 216.032 89.8848V78.1248C214.784 77.2928 213.376 76.8768 211.808 76.8768C209.728 76.8768 208.096 77.6608 206.912 79.2288C205.76 80.7648 205.184 82.9568 205.184 85.8048C205.184 88.5568 205.648 90.5888 206.576 91.9008C207.536 93.1808 208.72 93.8208 210.128 93.8208Z" fill="black"/>
<path d="M92.5733 97.2288C91.1653 97.2288 89.8533 96.8288 88.6373 96.0288C87.4533 95.1968 86.4933 93.9968 85.7573 92.4288C85.0533 90.8288 84.7013 88.8928 84.7013 86.6208C84.7013 82.8768 85.7093 79.9168 87.7253 77.7408C89.7733 75.5648 92.5253 74.4768 95.9813 74.4768C97.1333 74.4768 98.7013 74.6528 100.685 75.0048C102.157 75.2608 103.485 75.4368 104.669 75.5328L105.245 76.0608L104.621 76.8768C104.397 77.2608 104.237 77.5648 104.141 77.7888C104.077 77.9808 104.045 78.2528 104.045 78.6048V92.7648C104.045 93.6608 104.509 94.1088 105.437 94.1088C106.141 94.1088 106.861 93.8528 107.597 93.3408L108.413 94.4448C107.645 95.3088 106.829 95.9968 105.965 96.5088C105.101 96.9888 104.317 97.2288 103.613 97.2288C102.397 97.2288 101.517 96.8768 100.973 96.1728C100.429 95.4368 100.157 94.2528 100.157 92.6208C99.0053 94.3168 97.8053 95.5168 96.5573 96.2208C95.3413 96.8928 94.0133 97.2288 92.5733 97.2288ZM94.2533 93.8208C96.6853 93.8208 98.6533 92.5088 100.157 89.8848V78.1248C98.9093 77.2928 97.5013 76.8768 95.9333 76.8768C93.8533 76.8768 92.2213 77.6608 91.0373 79.2288C89.8853 80.7648 89.3093 82.9568 89.3093 85.8048C89.3093 88.5568 89.7733 90.5888 90.7013 91.9008C91.6613 93.1808 92.8453 93.8208 94.2533 93.8208Z" fill="#FA7256"/>
<path d="M131.976 97.2288C130.632 97.2288 129.512 96.8448 128.616 96.0768C127.752 95.3088 126.872 93.9808 125.976 92.0928L122.664 85.1328C122.408 84.5568 122.104 84.1408 121.752 83.8848C121.4 83.6288 120.728 83.3408 119.736 83.0208C119.192 82.7328 118.92 82.3648 118.92 81.9168C118.92 81.2768 119.16 80.9568 119.64 80.9568C119.768 80.9568 119.992 81.0048 120.312 81.1008C120.632 81.1968 121.096 81.2448 121.704 81.2448C123.848 81.2448 125.528 80.6368 126.744 79.4208C127.992 78.2048 128.616 76.5568 128.616 74.4768C128.616 72.2688 127.96 70.5088 126.648 69.1968C125.336 67.8528 123.544 67.1808 121.272 67.1808C120.184 67.1808 119.352 67.3568 118.776 67.7088C118.2 68.0608 117.912 68.5728 117.912 69.2448V87.8688C117.912 89.6288 118.056 91.0368 118.344 92.0928C118.632 93.1168 119.16 94.1248 119.928 95.1168L120.456 95.8848L119.928 96.6048H110.376L109.848 95.1168L110.856 94.8768C111.944 94.5888 112.68 94.1728 113.064 93.6288C113.448 93.0848 113.64 92.1568 113.64 90.8448V69.3408C113.64 68.9888 113.56 68.7328 113.4 68.5728C113.272 68.4128 113.032 68.3328 112.68 68.3328H110.184L109.656 66.7008C111.032 66.1568 112.744 65.7088 114.792 65.3568C116.872 64.9728 118.76 64.7808 120.456 64.7808C124.456 64.7808 127.56 65.6128 129.768 67.2768C132.008 68.9408 133.128 71.2768 133.128 74.2848C133.128 76.5568 132.504 78.4768 131.256 80.0448C130.008 81.5808 128.28 82.6208 126.072 83.1648C126.84 83.7088 127.448 84.4128 127.896 85.2768L131.928 93.5328C132.312 94.3968 132.872 94.8288 133.608 94.8288C134.152 94.8288 134.696 94.6208 135.24 94.2048L136.008 95.5008C134.696 96.6528 133.352 97.2288 131.976 97.2288Z" fill="#F7D380"/>
</svg>